<svg width="199" height="46" viewBox="0 0 199 46" fill="none" xmlns="http://www.w3.org/2000/svg">
<path opacity="0.5" d="M15.0571 0.5H0L15.9429 23L0 45.5H15.0571L31 23L15.0571 0.5Z" fill="#5D6AFB"/>
<path d="M29.0571 0.5H14L29.9429 23L14 45.5H29.0571L45 23L29.0571 0.5Z" fill="#5D6AFB"/>
<path d="M66.942 13.688H64.898V18H63.526V8.2H64.898V12.456H66.97L70.05 8.2H71.548L68.048 12.946L71.716 18H70.12L66.942 13.688ZM77.0524 10.51C77.7711 10.51 78.4151 10.6687 78.9844 10.986C79.5537 11.3033 79.9971 11.7467 80.3144 12.316C80.6411 12.8853 80.8044 13.5433 80.8044 14.29C80.8044 15.0367 80.6411 15.6993 80.3144 16.278C79.9971 16.8473 79.5537 17.2907 78.9844 17.608C78.4151 17.9253 77.7711 18.084 77.0524 18.084C76.5204 18.084 76.0304 17.9813 75.5824 17.776C75.1437 17.5707 74.7704 17.272 74.4624 16.88V20.716H73.1184V10.58H74.4064V11.756C74.7051 11.3453 75.0831 11.0373 75.5404 10.832C75.9977 10.6173 76.5017 10.51 77.0524 10.51ZM76.9404 16.908C77.4164 16.908 77.8411 16.8007 78.2144 16.586C78.5971 16.362 78.8957 16.054 79.1104 15.662C79.3344 15.2607 79.4464 14.8033 79.4464 14.29C79.4464 13.7767 79.3344 13.324 79.1104 12.932C78.8957 12.5307 78.5971 12.2227 78.2144 12.008C77.8411 11.7933 77.4164 11.686 76.9404 11.686C76.4737 11.686 76.0491 11.798 75.6664 12.022C75.2931 12.2367 74.9944 12.54 74.7704 12.932C74.5557 13.324 74.4484 13.7767 74.4484 14.29C74.4484 14.8033 74.5557 15.2607 74.7704 15.662C74.9851 16.054 75.2837 16.362 75.6664 16.586C76.0491 16.8007 76.4737 16.908 76.9404 16.908ZM85.3347 10.51C86.3614 10.51 87.1454 10.762 87.6867 11.266C88.2374 11.77 88.5127 12.5213 88.5127 13.52V18H87.2387V17.02C87.0147 17.3653 86.6927 17.6313 86.2727 17.818C85.8621 17.9953 85.3721 18.084 84.8027 18.084C83.9721 18.084 83.3047 17.8833 82.8007 17.482C82.3061 17.0807 82.0587 16.5533 82.0587 15.9C82.0587 15.2467 82.2967 14.724 82.7727 14.332C83.2487 13.9307 84.0047 13.73 85.0407 13.73H87.1687V13.464C87.1687 12.8853 87.0007 12.442 86.6647 12.134C86.3287 11.826 85.8341 11.672 85.1807 11.672C84.7421 11.672 84.3127 11.7467 83.8927 11.896C83.4727 12.036 83.1181 12.2273 82.8287 12.47L82.2687 11.462C82.6514 11.154 83.1087 10.9207 83.6407 10.762C84.1727 10.594 84.7374 10.51 85.3347 10.51ZM85.0267 17.048C85.5401 17.048 85.9834 16.936 86.3567 16.712C86.7301 16.4787 87.0007 16.152 87.1687 15.732V14.696H85.0967C83.9581 14.696 83.3887 15.0787 83.3887 15.844C83.3887 16.2173 83.5334 16.5113 83.8227 16.726C84.1121 16.9407 84.5134 17.048 85.0267 17.048ZM96.4629 11.756H93.7469V18H92.4029V11.756H89.6869V10.58H96.4629V11.756ZM100.721 14.864H99.1812V18H97.8372V10.58H99.1812V13.716H100.749L103.157 10.58H104.599L101.785 14.15L104.795 18H103.213L100.721 14.864ZM109.136 18.084C108.399 18.084 107.736 17.9207 107.148 17.594C106.56 17.2673 106.098 16.8193 105.762 16.25C105.436 15.6713 105.272 15.018 105.272 14.29C105.272 13.562 105.436 12.9133 105.762 12.344C106.098 11.7653 106.56 11.3173 107.148 11C107.736 10.6733 108.399 10.51 109.136 10.51C109.874 10.51 110.532 10.6733 111.11 11C111.698 11.3173 112.156 11.7653 112.482 12.344C112.818 12.9133 112.986 13.562 112.986 14.29C112.986 15.018 112.818 15.6713 112.482 16.25C112.156 16.8193 111.698 17.2673 111.11 17.594C110.532 17.9207 109.874 18.084 109.136 18.084ZM109.136 16.908C109.612 16.908 110.037 16.8007 110.41 16.586C110.793 16.362 111.092 16.054 111.306 15.662C111.521 15.2607 111.628 14.8033 111.628 14.29C111.628 13.7767 111.521 13.324 111.306 12.932C111.092 12.5307 110.793 12.2227 110.41 12.008C110.037 11.7933 109.612 11.686 109.136 11.686C108.66 11.686 108.231 11.7933 107.848 12.008C107.475 12.2227 107.176 12.5307 106.952 12.932C106.738 13.324 106.63 13.7767 106.63 14.29C106.63 14.8033 106.738 15.2607 106.952 15.662C107.176 16.054 107.475 16.362 107.848 16.586C108.231 16.8007 108.66 16.908 109.136 16.908ZM121.633 14.332C121.633 14.4347 121.624 14.57 121.605 14.738H115.585C115.669 15.3913 115.954 15.9187 116.439 16.32C116.934 16.712 117.545 16.908 118.273 16.908C119.16 16.908 119.874 16.6093 120.415 16.012L121.157 16.88C120.821 17.272 120.401 17.5707 119.897 17.776C119.402 17.9813 118.847 18.084 118.231 18.084C117.447 18.084 116.752 17.9253 116.145 17.608C115.538 17.2813 115.067 16.8287 114.731 16.25C114.404 15.6713 114.241 15.018 114.241 14.29C114.241 13.5713 114.4 12.9227 114.717 12.344C115.044 11.7653 115.487 11.3173 116.047 11C116.616 10.6733 117.256 10.51 117.965 10.51C118.674 10.51 119.304 10.6733 119.855 11C120.415 11.3173 120.849 11.7653 121.157 12.344C121.474 12.9227 121.633 13.5853 121.633 14.332ZM117.965 11.644C117.321 11.644 116.78 11.84 116.341 12.232C115.912 12.624 115.66 13.1373 115.585 13.772H120.345C120.27 13.1467 120.014 12.638 119.575 12.246C119.146 11.8447 118.609 11.644 117.965 11.644ZM130.656 18.084C129.918 18.084 129.256 17.9207 128.668 17.594C128.08 17.2673 127.618 16.8193 127.282 16.25C126.955 15.6713 126.792 15.018 126.792 14.29C126.792 13.562 126.955 12.9133 127.282 12.344C127.618 11.7653 128.08 11.3173 128.668 11C129.256 10.6733 129.918 10.51 130.656 10.51C131.393 10.51 132.051 10.6733 132.63 11C133.218 11.3173 133.675 11.7653 134.002 12.344C134.338 12.9133 134.506 13.562 134.506 14.29C134.506 15.018 134.338 15.6713 134.002 16.25C133.675 16.8193 133.218 17.2673 132.63 17.594C132.051 17.9207 131.393 18.084 130.656 18.084ZM130.656 16.908C131.132 16.908 131.556 16.8007 131.93 16.586C132.312 16.362 132.611 16.054 132.826 15.662C133.04 15.2607 133.148 14.8033 133.148 14.29C133.148 13.7767 133.04 13.324 132.826 12.932C132.611 12.5307 132.312 12.2227 131.93 12.008C131.556 11.7933 131.132 11.686 130.656 11.686C130.18 11.686 129.75 11.7933 129.368 12.008C128.994 12.2227 128.696 12.5307 128.472 12.932C128.257 13.324 128.15 13.7767 128.15 14.29C128.15 14.8033 128.257 15.2607 128.472 15.662C128.696 16.054 128.994 16.362 129.368 16.586C129.75 16.8007 130.18 16.908 130.656 16.908ZM143.321 10.58V18H141.977V11.756H137.791V18H136.447V10.58H143.321ZM145.921 10.58H147.265V15.984L151.815 10.58H153.033V18H151.689V12.596L147.153 18H145.921V10.58ZM158.876 18.084C158.12 18.084 157.443 17.9207 156.846 17.594C156.258 17.2673 155.796 16.8193 155.46 16.25C155.124 15.6713 154.956 15.018 154.956 14.29C154.956 13.562 155.124 12.9133 155.46 12.344C155.796 11.7653 156.258 11.3173 156.846 11C157.443 10.6733 158.12 10.51 158.876 10.51C159.548 10.51 160.145 10.6453 160.668 10.916C161.2 11.1867 161.611 11.5787 161.9 12.092L160.878 12.75C160.645 12.3953 160.355 12.1293 160.01 11.952C159.665 11.7747 159.282 11.686 158.862 11.686C158.377 11.686 157.938 11.7933 157.546 12.008C157.163 12.2227 156.86 12.5307 156.636 12.932C156.421 13.324 156.314 13.7767 156.314 14.29C156.314 14.8127 156.421 15.2747 156.636 15.676C156.86 16.068 157.163 16.3713 157.546 16.586C157.938 16.8007 158.377 16.908 158.862 16.908C159.282 16.908 159.665 16.8193 160.01 16.642C160.355 16.4647 160.645 16.1987 160.878 15.844L161.9 16.488C161.611 17.0013 161.2 17.398 160.668 17.678C160.145 17.9487 159.548 18.084 158.876 18.084ZM166.286 10.51C167.313 10.51 168.097 10.762 168.638 11.266C169.189 11.77 169.464 12.5213 169.464 13.52V18H168.19V17.02C167.966 17.3653 167.644 17.6313 167.224 17.818C166.813 17.9953 166.323 18.084 165.754 18.084C164.923 18.084 164.256 17.8833 163.752 17.482C163.257 17.0807 163.01 16.5533 163.01 15.9C163.01 15.2467 163.248 14.724 163.724 14.332C164.2 13.9307 164.956 13.73 165.992 13.73H168.12V13.464C168.12 12.8853 167.952 12.442 167.616 12.134C167.28 11.826 166.785 11.672 166.132 11.672C165.693 11.672 165.264 11.7467 164.844 11.896C164.424 12.036 164.069 12.2273 163.78 12.47L163.22 11.462C163.603 11.154 164.06 10.9207 164.592 10.762C165.124 10.594 165.689 10.51 166.286 10.51ZM165.978 17.048C166.491 17.048 166.935 16.936 167.308 16.712C167.681 16.4787 167.952 16.152 168.12 15.732V14.696H166.048C164.909 14.696 164.34 15.0787 164.34 15.844C164.34 16.2173 164.485 16.5113 164.774 16.726C165.063 16.9407 165.465 17.048 165.978 17.048ZM171.884 10.58H173.228V13.73H177.456V10.58H178.8V18H177.456V14.892H173.228V18H171.884V10.58ZM181.413 10.58H182.757V15.984L187.307 10.58H188.525V18H187.181V12.596L182.645 18H181.413V10.58ZM197.84 14.332C197.84 14.4347 197.831 14.57 197.812 14.738H191.792C191.876 15.3913 192.161 15.9187 192.646 16.32C193.141 16.712 193.752 16.908 194.48 16.908C195.367 16.908 196.081 16.6093 196.622 16.012L197.364 16.88C197.028 17.272 196.608 17.5707 196.104 17.776C195.609 17.9813 195.054 18.084 194.438 18.084C193.654 18.084 192.959 17.9253 192.352 17.608C191.745 17.2813 191.274 16.8287 190.938 16.25C190.611 15.6713 190.448 15.018 190.448 14.29C190.448 13.5713 190.607 12.9227 190.924 12.344C191.251 11.7653 191.694 11.3173 192.254 11C192.823 10.6733 193.463 10.51 194.172 10.51C194.881 10.51 195.511 10.6733 196.062 11C196.622 11.3173 197.056 11.7653 197.364 12.344C197.681 12.9227 197.84 13.5853 197.84 14.332ZM194.172 11.644C193.528 11.644 192.987 11.84 192.548 12.232C192.119 12.624 191.867 13.1373 191.792 13.772H196.552C196.477 13.1467 196.221 12.638 195.782 12.246C195.353 11.8447 194.816 11.644 194.172 11.644ZM70.848 37.824V40.722H69.588V39H63.386V40.722H62.112V37.824H62.504C62.98 37.796 63.3067 37.46 63.484 36.816C63.6613 36.172 63.7827 35.262 63.848 34.086L63.96 31.58H69.714V37.824H70.848ZM65.08 34.184C65.0427 35.1173 64.9633 35.892 64.842 36.508C64.73 37.1147 64.52 37.5533 64.212 37.824H68.37V32.756H65.15L65.08 34.184ZM79.3049 35.332C79.3049 35.4347 79.2955 35.57 79.2769 35.738H73.2569C73.3409 36.3913 73.6255 36.9187 74.1109 37.32C74.6055 37.712 75.2169 37.908 75.9449 37.908C76.8315 37.908 77.5455 37.6093 78.0869 37.012L78.8289 37.88C78.4929 38.272 78.0729 38.5707 77.5689 38.776C77.0742 38.9813 76.5189 39.084 75.9029 39.084C75.1189 39.084 74.4235 38.9253 73.8169 38.608C73.2102 38.2813 72.7389 37.8287 72.4029 37.25C72.0762 36.6713 71.9129 36.018 71.9129 35.29C71.9129 34.5713 72.0715 33.9227 72.3889 33.344C72.7155 32.7653 73.1589 32.3173 73.7189 32C74.2882 31.6733 74.9275 31.51 75.6369 31.51C76.3462 31.51 76.9762 31.6733 77.5269 32C78.0869 32.3173 78.5209 32.7653 78.8289 33.344C79.1462 33.9227 79.3049 34.5853 79.3049 35.332ZM75.6369 32.644C74.9929 32.644 74.4515 32.84 74.0129 33.232C73.5835 33.624 73.3315 34.1373 73.2569 34.772H78.0169C77.9422 34.1467 77.6855 33.638 77.2469 33.246C76.8175 32.8447 76.2809 32.644 75.6369 32.644ZM87.1348 31.58V39H85.9308V36.648H83.7748H83.6208L81.9968 39H80.5548L82.3608 36.466C81.8008 36.298 81.3715 36.0227 81.0728 35.64C80.7741 35.248 80.6248 34.7627 80.6248 34.184C80.6248 33.3347 80.9141 32.6907 81.4928 32.252C82.0715 31.804 82.8695 31.58 83.8868 31.58H87.1348ZM81.9968 34.226C81.9968 34.7207 82.1508 35.0893 82.4588 35.332C82.7761 35.5653 83.2475 35.682 83.8728 35.682H85.9308V32.756H83.9288C82.6408 32.756 81.9968 33.246 81.9968 34.226ZM95.2871 32.756H92.5711V39H91.2271V32.756H88.5111V31.58H95.2871V32.756ZM103.039 35.332C103.039 35.4347 103.03 35.57 103.011 35.738H96.9913C97.0753 36.3913 97.3599 36.9187 97.8453 37.32C98.3399 37.712 98.9513 37.908 99.6793 37.908C100.566 37.908 101.28 37.6093 101.821 37.012L102.563 37.88C102.227 38.272 101.807 38.5707 101.303 38.776C100.809 38.9813 100.253 39.084 99.6373 39.084C98.8533 39.084 98.1579 38.9253 97.5513 38.608C96.9446 38.2813 96.4733 37.8287 96.1373 37.25C95.8106 36.6713 95.6473 36.018 95.6473 35.29C95.6473 34.5713 95.8059 33.9227 96.1233 33.344C96.4499 32.7653 96.8933 32.3173 97.4533 32C98.0226 31.6733 98.6619 31.51 99.3713 31.51C100.081 31.51 100.711 31.6733 101.261 32C101.821 32.3173 102.255 32.7653 102.563 33.344C102.881 33.9227 103.039 34.5853 103.039 35.332ZM99.3713 32.644C98.7273 32.644 98.1859 32.84 97.7473 33.232C97.3179 33.624 97.0659 34.1373 96.9913 34.772H101.751C101.677 34.1467 101.42 33.638 100.981 33.246C100.552 32.8447 100.015 32.644 99.3713 32.644ZM111.371 31.58V39H110.027V32.756H106.835L106.751 34.408C106.705 35.4067 106.616 36.242 106.485 36.914C106.355 37.5767 106.14 38.1087 105.841 38.51C105.543 38.9113 105.127 39.112 104.595 39.112C104.353 39.112 104.077 39.07 103.769 38.986L103.853 37.852C103.975 37.88 104.087 37.894 104.189 37.894C104.563 37.894 104.843 37.7307 105.029 37.404C105.216 37.0773 105.337 36.69 105.393 36.242C105.449 35.794 105.501 35.1547 105.547 34.324L105.673 31.58H111.371ZM117.4 34.1C118.343 34.1093 119.061 34.324 119.556 34.744C120.051 35.164 120.298 35.7567 120.298 36.522C120.298 37.3247 120.027 37.9453 119.486 38.384C118.954 38.8133 118.189 39.0233 117.19 39.014L113.97 39V31.58H115.314V34.086L117.4 34.1ZM117.078 37.992C117.685 38.0013 118.142 37.88 118.45 37.628C118.767 37.376 118.926 37.0027 118.926 36.508C118.926 36.0227 118.772 35.668 118.464 35.444C118.165 35.22 117.703 35.1033 117.078 35.094L115.314 35.066V37.978L117.078 37.992ZM122.023 31.58H123.367V34.73H127.595V31.58H128.939V39H127.595V35.892H123.367V39H122.023V31.58ZM134.73 39.084C133.993 39.084 133.33 38.9207 132.742 38.594C132.154 38.2673 131.692 37.8193 131.356 37.25C131.029 36.6713 130.866 36.018 130.866 35.29C130.866 34.562 131.029 33.9133 131.356 33.344C131.692 32.7653 132.154 32.3173 132.742 32C133.33 31.6733 133.993 31.51 134.73 31.51C135.467 31.51 136.125 31.6733 136.704 32C137.292 32.3173 137.749 32.7653 138.076 33.344C138.412 33.9133 138.58 34.562 138.58 35.29C138.58 36.018 138.412 36.6713 138.076 37.25C137.749 37.8193 137.292 38.2673 136.704 38.594C136.125 38.9207 135.467 39.084 134.73 39.084ZM134.73 37.908C135.206 37.908 135.631 37.8007 136.004 37.586C136.387 37.362 136.685 37.054 136.9 36.662C137.115 36.2607 137.222 35.8033 137.222 35.29C137.222 34.7767 137.115 34.324 136.9 33.932C136.685 33.5307 136.387 33.2227 136.004 33.008C135.631 32.7933 135.206 32.686 134.73 32.686C134.254 32.686 133.825 32.7933 133.442 33.008C133.069 33.2227 132.77 33.5307 132.546 33.932C132.331 34.324 132.224 34.7767 132.224 35.29C132.224 35.8033 132.331 36.2607 132.546 36.662C132.77 37.054 133.069 37.362 133.442 37.586C133.825 37.8007 134.254 37.908 134.73 37.908ZM143.755 39.084C142.999 39.084 142.322 38.9207 141.725 38.594C141.137 38.2673 140.675 37.8193 140.339 37.25C140.003 36.6713 139.835 36.018 139.835 35.29C139.835 34.562 140.003 33.9133 140.339 33.344C140.675 32.7653 141.137 32.3173 141.725 32C142.322 31.6733 142.999 31.51 143.755 31.51C144.427 31.51 145.024 31.6453 145.547 31.916C146.079 32.1867 146.489 32.5787 146.779 33.092L145.757 33.75C145.523 33.3953 145.234 33.1293 144.889 32.952C144.543 32.7747 144.161 32.686 143.741 32.686C143.255 32.686 142.817 32.7933 142.425 33.008C142.042 33.2227 141.739 33.5307 141.515 33.932C141.3 34.324 141.193 34.7767 141.193 35.29C141.193 35.8127 141.3 36.2747 141.515 36.676C141.739 37.068 142.042 37.3713 142.425 37.586C142.817 37.8007 143.255 37.908 143.741 37.908C144.161 37.908 144.543 37.8193 144.889 37.642C145.234 37.4647 145.523 37.1987 145.757 36.844L146.779 37.488C146.489 38.0013 146.079 38.398 145.547 38.678C145.024 38.9487 144.427 39.084 143.755 39.084ZM153.953 32.756H151.237V39H149.893V32.756H147.177V31.58H153.953V32.756ZM155.327 31.58H156.671V36.984L161.221 31.58H162.439V39H161.095V33.596L156.559 39H155.327V31.58Z" fill="#2E363E"/>
</svg>
