<svg width="222" height="46" viewBox="0 0 222 46" fill="none" xmlns="http://www.w3.org/2000/svg">
<g clip-path="url(#clip0_382_3342)">
<rect width="36" height="36" rx="18" fill="#5D6AFB"/>
<path d="M22.4333 19.6334C21.9634 19.1696 21.3769 19.1696 20.91 19.6334C20.5539 19.9865 20.1978 20.3396 19.8477 20.6987C19.7519 20.7975 19.6711 20.8184 19.5544 20.7526C19.324 20.6269 19.0786 20.5252 18.8572 20.3875C17.8247 19.7381 16.9599 18.9032 16.1938 17.9636C15.8137 17.4968 15.4756 16.997 15.2391 16.4344C15.1913 16.3207 15.2002 16.2459 15.293 16.1532C15.6491 15.809 15.9963 15.4559 16.3464 15.1028C16.8342 14.612 16.8342 14.0375 16.3434 13.5437C16.0651 13.2624 15.7868 12.9871 15.5085 12.7058C15.2212 12.4185 14.9369 12.1283 14.6466 11.844C14.1768 11.3861 13.5902 11.3861 13.1234 11.847C12.7643 12.2001 12.4202 12.5622 12.0551 12.9093C11.7169 13.2295 11.5463 13.6215 11.5104 14.0794C11.4536 14.8245 11.6361 15.5277 11.8935 16.213C12.4202 17.6314 13.2222 18.8913 14.1947 20.0464C15.5085 21.6084 17.0766 22.8443 18.911 23.7361C19.737 24.1371 20.5928 24.4453 21.5235 24.4962C22.1639 24.5321 22.7205 24.3705 23.1664 23.8708C23.4717 23.5296 23.8158 23.2184 24.139 22.8922C24.6178 22.4074 24.6208 21.8209 24.145 21.3421C23.5764 20.7705 23.0048 20.202 22.4333 19.6334Z" fill="white"/>
<path d="M60.3592 13.376C60.9832 13.688 61.4572 14.096 61.7812 14.6C62.1172 15.104 62.2852 15.686 62.2852 16.346C62.2852 17.126 62.0632 17.81 61.6192 18.398C61.1752 18.974 60.5512 19.424 59.7472 19.748C58.9432 20.06 58.0132 20.216 56.9572 20.216C55.9012 20.216 54.9712 20.06 54.1672 19.748C53.3752 19.424 52.7572 18.974 52.3132 18.398C51.8812 17.81 51.6652 17.126 51.6652 16.346C51.6652 15.686 51.8272 15.104 52.1512 14.6C52.4872 14.096 52.9612 13.688 53.5732 13.376C53.1052 13.088 52.7452 12.728 52.4932 12.296C52.2412 11.852 52.1152 11.348 52.1152 10.784C52.1152 10.052 52.3192 9.416 52.7272 8.876C53.1352 8.336 53.7052 7.922 54.4372 7.634C55.1692 7.334 56.0092 7.184 56.9572 7.184C57.9172 7.184 58.7632 7.334 59.4952 7.634C60.2392 7.922 60.8152 8.336 61.2232 8.876C61.6312 9.416 61.8352 10.052 61.8352 10.784C61.8352 11.348 61.7092 11.852 61.4572 12.296C61.2052 12.728 60.8392 13.088 60.3592 13.376ZM56.9572 9.326C56.3692 9.326 55.8952 9.47 55.5352 9.758C55.1872 10.034 55.0132 10.418 55.0132 10.91C55.0132 11.39 55.1872 11.768 55.5352 12.044C55.8832 12.32 56.3572 12.458 56.9572 12.458C57.5572 12.458 58.0372 12.32 58.3972 12.044C58.7572 11.768 58.9372 11.39 58.9372 10.91C58.9372 10.418 58.7572 10.034 58.3972 9.758C58.0372 9.47 57.5572 9.326 56.9572 9.326ZM56.9572 18.074C57.6892 18.074 58.2652 17.912 58.6852 17.588C59.1172 17.252 59.3332 16.808 59.3332 16.256C59.3332 15.704 59.1172 15.266 58.6852 14.942C58.2652 14.618 57.6892 14.456 56.9572 14.456C56.2372 14.456 55.6672 14.618 55.2472 14.942C54.8272 15.266 54.6172 15.704 54.6172 16.256C54.6172 16.82 54.8272 17.264 55.2472 17.588C55.6672 17.912 56.2372 18.074 56.9572 18.074ZM71.5796 23.492C70.8596 22.4 70.3016 21.134 69.9056 19.694C69.5216 18.254 69.3296 16.712 69.3296 15.068C69.3296 13.424 69.5216 11.882 69.9056 10.442C70.3016 8.99 70.8596 7.724 71.5796 6.644H74.2616C73.5056 7.976 72.9536 9.332 72.6056 10.712C72.2576 12.08 72.0836 13.532 72.0836 15.068C72.0836 16.604 72.2576 18.062 72.6056 19.442C72.9536 20.81 73.5056 22.16 74.2616 23.492H71.5796ZM83.7732 13.376C84.3972 13.688 84.8712 14.096 85.1952 14.6C85.5312 15.104 85.6992 15.686 85.6992 16.346C85.6992 17.126 85.4772 17.81 85.0332 18.398C84.5892 18.974 83.9652 19.424 83.1612 19.748C82.3572 20.06 81.4272 20.216 80.3712 20.216C79.3152 20.216 78.3852 20.06 77.5812 19.748C76.7892 19.424 76.1712 18.974 75.7272 18.398C75.2952 17.81 75.0792 17.126 75.0792 16.346C75.0792 15.686 75.2412 15.104 75.5652 14.6C75.9012 14.096 76.3752 13.688 76.9872 13.376C76.5192 13.088 76.1592 12.728 75.9072 12.296C75.6552 11.852 75.5292 11.348 75.5292 10.784C75.5292 10.052 75.7332 9.416 76.1412 8.876C76.5492 8.336 77.1192 7.922 77.8512 7.634C78.5832 7.334 79.4232 7.184 80.3712 7.184C81.3312 7.184 82.1772 7.334 82.9092 7.634C83.6532 7.922 84.2292 8.336 84.6372 8.876C85.0452 9.416 85.2492 10.052 85.2492 10.784C85.2492 11.348 85.1232 11.852 84.8712 12.296C84.6192 12.728 84.2532 13.088 83.7732 13.376ZM80.3712 9.326C79.7832 9.326 79.3092 9.47 78.9492 9.758C78.6012 10.034 78.4272 10.418 78.4272 10.91C78.4272 11.39 78.6012 11.768 78.9492 12.044C79.2972 12.32 79.7712 12.458 80.3712 12.458C80.9712 12.458 81.4512 12.32 81.8112 12.044C82.1712 11.768 82.3512 11.39 82.3512 10.91C82.3512 10.418 82.1712 10.034 81.8112 9.758C81.4512 9.47 80.9712 9.326 80.3712 9.326ZM80.3712 18.074C81.1032 18.074 81.6792 17.912 82.0992 17.588C82.5312 17.252 82.7472 16.808 82.7472 16.256C82.7472 15.704 82.5312 15.266 82.0992 14.942C81.6792 14.618 81.1032 14.456 80.3712 14.456C79.6512 14.456 79.0812 14.618 78.6612 14.942C78.2412 15.266 78.0312 15.704 78.0312 16.256C78.0312 16.82 78.2412 17.264 78.6612 17.588C79.0812 17.912 79.6512 18.074 80.3712 18.074ZM92.434 20.216C91.39 20.216 90.46 19.958 89.644 19.442C88.828 18.926 88.186 18.182 87.718 17.21C87.262 16.226 87.034 15.056 87.034 13.7C87.034 12.344 87.262 11.18 87.718 10.208C88.186 9.224 88.828 8.474 89.644 7.958C90.46 7.442 91.39 7.184 92.434 7.184C93.478 7.184 94.408 7.442 95.224 7.958C96.04 8.474 96.676 9.224 97.132 10.208C97.6 11.18 97.834 12.344 97.834 13.7C97.834 15.056 97.6 16.226 97.132 17.21C96.676 18.182 96.04 18.926 95.224 19.442C94.408 19.958 93.478 20.216 92.434 20.216ZM92.434 17.75C93.202 17.75 93.802 17.42 94.234 16.76C94.678 16.1 94.9 15.08 94.9 13.7C94.9 12.32 94.678 11.3 94.234 10.64C93.802 9.98 93.202 9.65 92.434 9.65C91.678 9.65 91.078 9.98 90.634 10.64C90.202 11.3 89.986 12.32 89.986 13.7C89.986 15.08 90.202 16.1 90.634 16.76C91.078 17.42 91.678 17.75 92.434 17.75ZM104.651 20.216C103.607 20.216 102.677 19.958 101.861 19.442C101.045 18.926 100.403 18.182 99.9348 17.21C99.4788 16.226 99.2508 15.056 99.2508 13.7C99.2508 12.344 99.4788 11.18 99.9348 10.208C100.403 9.224 101.045 8.474 101.861 7.958C102.677 7.442 103.607 7.184 104.651 7.184C105.695 7.184 106.625 7.442 107.441 7.958C108.257 8.474 108.893 9.224 109.349 10.208C109.817 11.18 110.051 12.344 110.051 13.7C110.051 15.056 109.817 16.226 109.349 17.21C108.893 18.182 108.257 18.926 107.441 19.442C106.625 19.958 105.695 20.216 104.651 20.216ZM104.651 17.75C105.419 17.75 106.019 17.42 106.451 16.76C106.895 16.1 107.117 15.08 107.117 13.7C107.117 12.32 106.895 11.3 106.451 10.64C106.019 9.98 105.419 9.65 104.651 9.65C103.895 9.65 103.295 9.98 102.851 10.64C102.419 11.3 102.203 12.32 102.203 13.7C102.203 15.08 102.419 16.1 102.851 16.76C103.295 17.42 103.895 17.75 104.651 17.75ZM110.946 23.492C111.702 22.16 112.254 20.81 112.602 19.442C112.962 18.062 113.142 16.604 113.142 15.068C113.142 13.532 112.962 12.08 112.602 10.712C112.254 9.332 111.702 7.976 110.946 6.644H113.628C114.36 7.712 114.918 8.972 115.302 10.424C115.698 11.864 115.896 13.412 115.896 15.068C115.896 16.724 115.704 18.272 115.32 19.712C114.936 21.14 114.372 22.4 113.628 23.492H110.946ZM128.416 20.216C127.372 20.216 126.442 19.958 125.626 19.442C124.81 18.926 124.168 18.182 123.7 17.21C123.244 16.226 123.016 15.056 123.016 13.7C123.016 12.344 123.244 11.18 123.7 10.208C124.168 9.224 124.81 8.474 125.626 7.958C126.442 7.442 127.372 7.184 128.416 7.184C129.46 7.184 130.39 7.442 131.206 7.958C132.022 8.474 132.658 9.224 133.114 10.208C133.582 11.18 133.816 12.344 133.816 13.7C133.816 15.056 133.582 16.226 133.114 17.21C132.658 18.182 132.022 18.926 131.206 19.442C130.39 19.958 129.46 20.216 128.416 20.216ZM128.416 17.75C129.184 17.75 129.784 17.42 130.216 16.76C130.66 16.1 130.882 15.08 130.882 13.7C130.882 12.32 130.66 11.3 130.216 10.64C129.784 9.98 129.184 9.65 128.416 9.65C127.66 9.65 127.06 9.98 126.616 10.64C126.184 11.3 125.968 12.32 125.968 13.7C125.968 15.08 126.184 16.1 126.616 16.76C127.06 17.42 127.66 17.75 128.416 17.75ZM140.633 20.216C139.589 20.216 138.659 19.958 137.843 19.442C137.027 18.926 136.385 18.182 135.917 17.21C135.461 16.226 135.233 15.056 135.233 13.7C135.233 12.344 135.461 11.18 135.917 10.208C136.385 9.224 137.027 8.474 137.843 7.958C138.659 7.442 139.589 7.184 140.633 7.184C141.677 7.184 142.607 7.442 143.423 7.958C144.239 8.474 144.875 9.224 145.331 10.208C145.799 11.18 146.033 12.344 146.033 13.7C146.033 15.056 145.799 16.226 145.331 17.21C144.875 18.182 144.239 18.926 143.423 19.442C142.607 19.958 141.677 20.216 140.633 20.216ZM140.633 17.75C141.401 17.75 142.001 17.42 142.433 16.76C142.877 16.1 143.099 15.08 143.099 13.7C143.099 12.32 142.877 11.3 142.433 10.64C142.001 9.98 141.401 9.65 140.633 9.65C139.877 9.65 139.277 9.98 138.833 10.64C138.401 11.3 138.185 12.32 138.185 13.7C138.185 15.08 138.401 16.1 138.833 16.76C139.277 17.42 139.877 17.75 140.633 17.75ZM152.85 20.216C151.806 20.216 150.876 19.958 150.06 19.442C149.244 18.926 148.602 18.182 148.134 17.21C147.678 16.226 147.45 15.056 147.45 13.7C147.45 12.344 147.678 11.18 148.134 10.208C148.602 9.224 149.244 8.474 150.06 7.958C150.876 7.442 151.806 7.184 152.85 7.184C153.894 7.184 154.824 7.442 155.64 7.958C156.456 8.474 157.092 9.224 157.548 10.208C158.016 11.18 158.25 12.344 158.25 13.7C158.25 15.056 158.016 16.226 157.548 17.21C157.092 18.182 156.456 18.926 155.64 19.442C154.824 19.958 153.894 20.216 152.85 20.216ZM152.85 17.75C153.618 17.75 154.218 17.42 154.65 16.76C155.094 16.1 155.316 15.08 155.316 13.7C155.316 12.32 155.094 11.3 154.65 10.64C154.218 9.98 153.618 9.65 152.85 9.65C152.094 9.65 151.494 9.98 151.05 10.64C150.618 11.3 150.402 12.32 150.402 13.7C150.402 15.08 150.618 16.1 151.05 16.76C151.494 17.42 152.094 17.75 152.85 17.75ZM159.971 13.808H165.065V16.058H159.971V13.808ZM172.151 20.216C171.107 20.216 170.177 19.958 169.361 19.442C168.545 18.926 167.903 18.182 167.435 17.21C166.979 16.226 166.751 15.056 166.751 13.7C166.751 12.344 166.979 11.18 167.435 10.208C167.903 9.224 168.545 8.474 169.361 7.958C170.177 7.442 171.107 7.184 172.151 7.184C173.195 7.184 174.125 7.442 174.941 7.958C175.757 8.474 176.393 9.224 176.849 10.208C177.317 11.18 177.551 12.344 177.551 13.7C177.551 15.056 177.317 16.226 176.849 17.21C176.393 18.182 175.757 18.926 174.941 19.442C174.125 19.958 173.195 20.216 172.151 20.216ZM172.151 17.75C172.919 17.75 173.519 17.42 173.951 16.76C174.395 16.1 174.617 15.08 174.617 13.7C174.617 12.32 174.395 11.3 173.951 10.64C173.519 9.98 172.919 9.65 172.151 9.65C171.395 9.65 170.795 9.98 170.351 10.64C169.919 11.3 169.703 12.32 169.703 13.7C169.703 15.08 169.919 16.1 170.351 16.76C170.795 17.42 171.395 17.75 172.151 17.75ZM184.368 20.216C183.324 20.216 182.394 19.958 181.578 19.442C180.762 18.926 180.12 18.182 179.652 17.21C179.196 16.226 178.968 15.056 178.968 13.7C178.968 12.344 179.196 11.18 179.652 10.208C180.12 9.224 180.762 8.474 181.578 7.958C182.394 7.442 183.324 7.184 184.368 7.184C185.412 7.184 186.342 7.442 187.158 7.958C187.974 8.474 188.61 9.224 189.066 10.208C189.534 11.18 189.768 12.344 189.768 13.7C189.768 15.056 189.534 16.226 189.066 17.21C188.61 18.182 187.974 18.926 187.158 19.442C186.342 19.958 185.412 20.216 184.368 20.216ZM184.368 17.75C185.136 17.75 185.736 17.42 186.168 16.76C186.612 16.1 186.834 15.08 186.834 13.7C186.834 12.32 186.612 11.3 186.168 10.64C185.736 9.98 185.136 9.65 184.368 9.65C183.612 9.65 183.012 9.98 182.568 10.64C182.136 11.3 181.92 12.32 181.92 13.7C181.92 15.08 182.136 16.1 182.568 16.76C183.012 17.42 183.612 17.75 184.368 17.75ZM191.489 13.808H196.583V16.058H191.489V13.808ZM203.668 20.216C202.624 20.216 201.694 19.958 200.878 19.442C200.062 18.926 199.42 18.182 198.952 17.21C198.496 16.226 198.268 15.056 198.268 13.7C198.268 12.344 198.496 11.18 198.952 10.208C199.42 9.224 200.062 8.474 200.878 7.958C201.694 7.442 202.624 7.184 203.668 7.184C204.712 7.184 205.642 7.442 206.458 7.958C207.274 8.474 207.91 9.224 208.366 10.208C208.834 11.18 209.068 12.344 209.068 13.7C209.068 15.056 208.834 16.226 208.366 17.21C207.91 18.182 207.274 18.926 206.458 19.442C205.642 19.958 204.712 20.216 203.668 20.216ZM203.668 17.75C204.436 17.75 205.036 17.42 205.468 16.76C205.912 16.1 206.134 15.08 206.134 13.7C206.134 12.32 205.912 11.3 205.468 10.64C205.036 9.98 204.436 9.65 203.668 9.65C202.912 9.65 202.312 9.98 201.868 10.64C201.436 11.3 201.22 12.32 201.22 13.7C201.22 15.08 201.436 16.1 201.868 16.76C202.312 17.42 202.912 17.75 203.668 17.75ZM215.885 20.216C214.841 20.216 213.911 19.958 213.095 19.442C212.279 18.926 211.637 18.182 211.169 17.21C210.713 16.226 210.485 15.056 210.485 13.7C210.485 12.344 210.713 11.18 211.169 10.208C211.637 9.224 212.279 8.474 213.095 7.958C213.911 7.442 214.841 7.184 215.885 7.184C216.929 7.184 217.859 7.442 218.675 7.958C219.491 8.474 220.127 9.224 220.583 10.208C221.051 11.18 221.285 12.344 221.285 13.7C221.285 15.056 221.051 16.226 220.583 17.21C220.127 18.182 219.491 18.926 218.675 19.442C217.859 19.958 216.929 20.216 215.885 20.216ZM215.885 17.75C216.653 17.75 217.253 17.42 217.685 16.76C218.129 16.1 218.351 15.08 218.351 13.7C218.351 12.32 218.129 11.3 217.685 10.64C217.253 9.98 216.653 9.65 215.885 9.65C215.129 9.65 214.529 9.98 214.085 10.64C213.653 11.3 213.437 12.32 213.437 13.7C213.437 15.08 213.653 16.1 214.085 16.76C214.529 17.42 215.129 17.75 215.885 17.75Z" fill="#2E363E"/>
<path d="M58.356 40.232V41H52.416V32.6H58.176V33.368H53.304V36.356H57.648V37.112H53.304V40.232H58.356ZM65.4784 38.192H64.1104V41H63.2584V38.192H61.8904L59.9584 41H58.9384L61.2064 37.748L59.1184 34.688H60.0424L61.8904 37.46H63.2584V34.688H64.1104V37.46H65.4784L67.3384 34.688H68.2624L66.1744 37.76L68.4424 41H67.4224L65.4784 38.192ZM75.1578 38.108H69.8778C69.9258 38.764 70.1778 39.296 70.6338 39.704C71.0898 40.104 71.6658 40.304 72.3618 40.304C72.7538 40.304 73.1138 40.236 73.4418 40.1C73.7698 39.956 74.0538 39.748 74.2938 39.476L74.7738 40.028C74.4938 40.364 74.1418 40.62 73.7178 40.796C73.3018 40.972 72.8418 41.06 72.3378 41.06C71.6898 41.06 71.1138 40.924 70.6098 40.652C70.1138 40.372 69.7258 39.988 69.4458 39.5C69.1658 39.012 69.0258 38.46 69.0258 37.844C69.0258 37.228 69.1578 36.676 69.4218 36.188C69.6938 35.7 70.0618 35.32 70.5258 35.048C70.9978 34.776 71.5258 34.64 72.1098 34.64C72.6938 34.64 73.2178 34.776 73.6818 35.048C74.1458 35.32 74.5098 35.7 74.7738 36.188C75.0378 36.668 75.1698 37.22 75.1698 37.844L75.1578 38.108ZM72.1098 35.372C71.5018 35.372 70.9898 35.568 70.5738 35.96C70.1658 36.344 69.9338 36.848 69.8778 37.472H74.3538C74.2978 36.848 74.0618 36.344 73.6458 35.96C73.2378 35.568 72.7258 35.372 72.1098 35.372ZM83.0828 40.256V42.524H82.2788V41H76.6268V42.524H75.8228V40.256H76.1828C76.6068 40.232 76.8948 39.92 77.0468 39.32C77.1988 38.72 77.3028 37.88 77.3588 36.8L77.4428 34.688H82.0988V40.256H83.0828ZM78.1388 36.848C78.0988 37.744 78.0228 38.484 77.9108 39.068C77.7988 39.644 77.5988 40.04 77.3108 40.256H81.2468V35.444H78.2108L78.1388 36.848ZM84.7433 34.688H85.5953V37.484H89.5673V34.688H90.4193V41H89.5673V38.216H85.5953V41H84.7433V34.688ZM98.3609 38.108H93.0809C93.1289 38.764 93.3809 39.296 93.8369 39.704C94.2929 40.104 94.8689 40.304 95.5649 40.304C95.9569 40.304 96.3169 40.236 96.6449 40.1C96.9729 39.956 97.2569 39.748 97.4969 39.476L97.9769 40.028C97.6969 40.364 97.3449 40.62 96.9209 40.796C96.5049 40.972 96.0449 41.06 95.5409 41.06C94.8929 41.06 94.3169 40.924 93.8129 40.652C93.3169 40.372 92.9289 39.988 92.6489 39.5C92.3689 39.012 92.2289 38.46 92.2289 37.844C92.2289 37.228 92.3609 36.676 92.6249 36.188C92.8969 35.7 93.2649 35.32 93.7289 35.048C94.2009 34.776 94.7289 34.64 95.3129 34.64C95.8969 34.64 96.4209 34.776 96.8849 35.048C97.3489 35.32 97.7129 35.7 97.9769 36.188C98.2409 36.668 98.3729 37.22 98.3729 37.844L98.3609 38.108ZM95.3129 35.372C94.7049 35.372 94.1929 35.568 93.7769 35.96C93.3689 36.344 93.1369 36.848 93.0809 37.472H97.5569C97.5009 36.848 97.2649 36.344 96.8489 35.96C96.4409 35.568 95.9289 35.372 95.3129 35.372ZM104.279 37.736C105.135 37.936 105.563 38.452 105.563 39.284C105.563 39.836 105.359 40.26 104.951 40.556C104.543 40.852 103.935 41 103.127 41H100.259V34.688H103.043C103.763 34.688 104.327 34.828 104.735 35.108C105.143 35.388 105.347 35.788 105.347 36.308C105.347 36.652 105.251 36.948 105.059 37.196C104.875 37.436 104.615 37.616 104.279 37.736ZM101.087 37.496H102.983C103.471 37.496 103.843 37.404 104.099 37.22C104.363 37.036 104.495 36.768 104.495 36.416C104.495 36.064 104.363 35.8 104.099 35.624C103.843 35.448 103.471 35.36 102.983 35.36H101.087V37.496ZM103.091 40.328C103.635 40.328 104.043 40.24 104.315 40.064C104.587 39.888 104.723 39.612 104.723 39.236C104.723 38.86 104.599 38.584 104.351 38.408C104.103 38.224 103.711 38.132 103.175 38.132H101.087V40.328H103.091ZM107.56 34.688H108.412V37.484H112.384V34.688H113.236V41H112.384V38.216H108.412V41H107.56V34.688ZM118.261 41.06C117.653 41.06 117.105 40.924 116.617 40.652C116.129 40.372 115.745 39.988 115.465 39.5C115.185 39.012 115.045 38.46 115.045 37.844C115.045 37.228 115.185 36.676 115.465 36.188C115.745 35.7 116.129 35.32 116.617 35.048C117.105 34.776 117.653 34.64 118.261 34.64C118.869 34.64 119.417 34.776 119.905 35.048C120.393 35.32 120.773 35.7 121.045 36.188C121.325 36.676 121.465 37.228 121.465 37.844C121.465 38.46 121.325 39.012 121.045 39.5C120.773 39.988 120.393 40.372 119.905 40.652C119.417 40.924 118.869 41.06 118.261 41.06ZM118.261 40.304C118.709 40.304 119.109 40.204 119.461 40.004C119.821 39.796 120.101 39.504 120.301 39.128C120.501 38.752 120.601 38.324 120.601 37.844C120.601 37.364 120.501 36.936 120.301 36.56C120.101 36.184 119.821 35.896 119.461 35.696C119.109 35.488 118.709 35.384 118.261 35.384C117.813 35.384 117.409 35.488 117.049 35.696C116.697 35.896 116.417 36.184 116.209 36.56C116.009 36.936 115.909 37.364 115.909 37.844C115.909 38.324 116.009 38.752 116.209 39.128C116.417 39.504 116.697 39.796 117.049 40.004C117.409 40.204 117.813 40.304 118.261 40.304ZM129.067 41.06C128.443 41.06 127.883 40.924 127.387 40.652C126.899 40.38 126.515 40 126.235 39.512C125.955 39.016 125.815 38.46 125.815 37.844C125.815 37.228 125.955 36.676 126.235 36.188C126.515 35.7 126.899 35.32 127.387 35.048C127.883 34.776 128.443 34.64 129.067 34.64C129.611 34.64 130.095 34.748 130.519 34.964C130.951 35.172 131.291 35.48 131.539 35.888L130.903 36.32C130.695 36.008 130.431 35.776 130.111 35.624C129.791 35.464 129.443 35.384 129.067 35.384C128.611 35.384 128.199 35.488 127.831 35.696C127.471 35.896 127.187 36.184 126.979 36.56C126.779 36.936 126.679 37.364 126.679 37.844C126.679 38.332 126.779 38.764 126.979 39.14C127.187 39.508 127.471 39.796 127.831 40.004C128.199 40.204 128.611 40.304 129.067 40.304C129.443 40.304 129.791 40.228 130.111 40.076C130.431 39.924 130.695 39.692 130.903 39.38L131.539 39.812C131.291 40.22 130.951 40.532 130.519 40.748C130.087 40.956 129.603 41.06 129.067 41.06ZM138.357 32.528C139.469 32.528 140.321 32.896 140.913 33.632C141.505 34.36 141.801 35.392 141.801 36.728C141.801 37.664 141.641 38.456 141.321 39.104C141.001 39.752 140.553 40.244 139.977 40.58C139.401 40.908 138.729 41.072 137.961 41.072C137.129 41.072 136.465 40.92 135.969 40.616L136.317 39.92C136.717 40.184 137.261 40.316 137.949 40.316C138.877 40.316 139.605 40.024 140.133 39.44C140.661 38.848 140.925 37.992 140.925 36.872C140.925 36.664 140.913 36.436 140.889 36.188C140.681 36.644 140.349 37 139.893 37.256C139.437 37.504 138.913 37.628 138.321 37.628C137.769 37.628 137.277 37.524 136.845 37.316C136.421 37.108 136.089 36.816 135.849 36.44C135.609 36.056 135.489 35.612 135.489 35.108C135.489 34.596 135.613 34.144 135.861 33.752C136.109 33.36 136.449 33.06 136.881 32.852C137.321 32.636 137.813 32.528 138.357 32.528ZM138.453 36.896C138.877 36.896 139.249 36.816 139.569 36.656C139.897 36.496 140.153 36.276 140.337 35.996C140.521 35.716 140.613 35.404 140.613 35.06C140.613 34.74 140.525 34.444 140.349 34.172C140.181 33.9 139.929 33.68 139.593 33.512C139.257 33.344 138.857 33.26 138.393 33.26C137.785 33.26 137.289 33.428 136.905 33.764C136.529 34.092 136.341 34.532 136.341 35.084C136.341 35.636 136.529 36.076 136.905 36.404C137.289 36.732 137.805 36.896 138.453 36.896ZM143.702 35.948C143.526 35.948 143.374 35.884 143.246 35.756C143.126 35.628 143.066 35.472 143.066 35.288C143.066 35.104 143.126 34.952 143.246 34.832C143.374 34.704 143.526 34.64 143.702 34.64C143.878 34.64 144.03 34.704 144.158 34.832C144.286 34.952 144.35 35.104 144.35 35.288C144.35 35.472 144.286 35.628 144.158 35.756C144.03 35.884 143.878 35.948 143.702 35.948ZM143.702 41.06C143.526 41.06 143.374 40.996 143.246 40.868C143.126 40.74 143.066 40.584 143.066 40.4C143.066 40.216 143.126 40.064 143.246 39.944C143.374 39.816 143.526 39.752 143.702 39.752C143.878 39.752 144.03 39.816 144.158 39.944C144.286 40.064 144.35 40.216 144.35 40.4C144.35 40.584 144.286 40.74 144.158 40.868C144.03 40.996 143.878 41.06 143.702 41.06ZM148.945 41.072C148.297 41.072 147.717 40.9 147.205 40.556C146.701 40.212 146.305 39.72 146.017 39.08C145.737 38.432 145.597 37.672 145.597 36.8C145.597 35.928 145.737 35.172 146.017 34.532C146.305 33.884 146.701 33.388 147.205 33.044C147.717 32.7 148.297 32.528 148.945 32.528C149.593 32.528 150.169 32.7 150.673 33.044C151.185 33.388 151.585 33.884 151.873 34.532C152.161 35.172 152.305 35.928 152.305 36.8C152.305 37.672 152.161 38.432 151.873 39.08C151.585 39.72 151.185 40.212 150.673 40.556C150.169 40.9 149.593 41.072 148.945 41.072ZM148.945 40.28C149.433 40.28 149.861 40.144 150.229 39.872C150.605 39.6 150.897 39.204 151.105 38.684C151.313 38.164 151.417 37.536 151.417 36.8C151.417 36.064 151.313 35.436 151.105 34.916C150.897 34.396 150.605 34 150.229 33.728C149.861 33.456 149.433 33.32 148.945 33.32C148.457 33.32 148.025 33.456 147.649 33.728C147.281 34 146.993 34.396 146.785 34.916C146.577 35.436 146.473 36.064 146.473 36.8C146.473 37.536 146.577 38.164 146.785 38.684C146.993 39.204 147.281 39.6 147.649 39.872C148.025 40.144 148.457 40.28 148.945 40.28ZM156.89 41.072C156.242 41.072 155.662 40.9 155.15 40.556C154.646 40.212 154.25 39.72 153.962 39.08C153.682 38.432 153.542 37.672 153.542 36.8C153.542 35.928 153.682 35.172 153.962 34.532C154.25 33.884 154.646 33.388 155.15 33.044C155.662 32.7 156.242 32.528 156.89 32.528C157.538 32.528 158.114 32.7 158.618 33.044C159.13 33.388 159.53 33.884 159.818 34.532C160.106 35.172 160.25 35.928 160.25 36.8C160.25 37.672 160.106 38.432 159.818 39.08C159.53 39.72 159.13 40.212 158.618 40.556C158.114 40.9 157.538 41.072 156.89 41.072ZM156.89 40.28C157.378 40.28 157.806 40.144 158.174 39.872C158.55 39.6 158.842 39.204 159.05 38.684C159.258 38.164 159.362 37.536 159.362 36.8C159.362 36.064 159.258 35.436 159.05 34.916C158.842 34.396 158.55 34 158.174 33.728C157.806 33.456 157.378 33.32 156.89 33.32C156.402 33.32 155.97 33.456 155.594 33.728C155.226 34 154.938 34.396 154.73 34.916C154.522 35.436 154.418 36.064 154.418 36.8C154.418 37.536 154.522 38.164 154.73 38.684C154.938 39.204 155.226 39.6 155.594 39.872C155.97 40.144 156.402 40.28 156.89 40.28ZM171.372 40.256V42.524H170.568V41H164.916V42.524H164.112V40.256H164.472C164.896 40.232 165.184 39.92 165.336 39.32C165.488 38.72 165.592 37.88 165.648 36.8L165.732 34.688H170.388V40.256H171.372ZM166.428 36.848C166.388 37.744 166.312 38.484 166.2 39.068C166.088 39.644 165.888 40.04 165.6 40.256H169.536V35.444H166.5L166.428 36.848ZM175.636 41.06C175.028 41.06 174.48 40.924 173.992 40.652C173.504 40.372 173.12 39.988 172.84 39.5C172.56 39.012 172.42 38.46 172.42 37.844C172.42 37.228 172.56 36.676 172.84 36.188C173.12 35.7 173.504 35.32 173.992 35.048C174.48 34.776 175.028 34.64 175.636 34.64C176.244 34.64 176.792 34.776 177.28 35.048C177.768 35.32 178.148 35.7 178.42 36.188C178.7 36.676 178.84 37.228 178.84 37.844C178.84 38.46 178.7 39.012 178.42 39.5C178.148 39.988 177.768 40.372 177.28 40.652C176.792 40.924 176.244 41.06 175.636 41.06ZM175.636 40.304C176.084 40.304 176.484 40.204 176.836 40.004C177.196 39.796 177.476 39.504 177.676 39.128C177.876 38.752 177.976 38.324 177.976 37.844C177.976 37.364 177.876 36.936 177.676 36.56C177.476 36.184 177.196 35.896 176.836 35.696C176.484 35.488 176.084 35.384 175.636 35.384C175.188 35.384 174.784 35.488 174.424 35.696C174.072 35.896 173.792 36.184 173.584 36.56C173.384 36.936 173.284 37.364 173.284 37.844C173.284 38.324 173.384 38.752 173.584 39.128C173.792 39.504 174.072 39.796 174.424 40.004C174.784 40.204 175.188 40.304 175.636 40.304ZM188.95 40.232V41H183.058V40.388L186.55 36.968C186.99 36.536 187.286 36.164 187.438 35.852C187.598 35.532 187.678 35.212 187.678 34.892C187.678 34.396 187.506 34.012 187.162 33.74C186.826 33.46 186.342 33.32 185.71 33.32C184.726 33.32 183.962 33.632 183.418 34.256L182.806 33.728C183.134 33.344 183.55 33.048 184.054 32.84C184.566 32.632 185.142 32.528 185.782 32.528C186.638 32.528 187.314 32.732 187.81 33.14C188.314 33.54 188.566 34.092 188.566 34.796C188.566 35.228 188.47 35.644 188.278 36.044C188.086 36.444 187.722 36.904 187.186 37.424L184.33 40.232H188.95ZM193.335 41.072C192.687 41.072 192.107 40.9 191.595 40.556C191.091 40.212 190.695 39.72 190.407 39.08C190.127 38.432 189.987 37.672 189.987 36.8C189.987 35.928 190.127 35.172 190.407 34.532C190.695 33.884 191.091 33.388 191.595 33.044C192.107 32.7 192.687 32.528 193.335 32.528C193.983 32.528 194.559 32.7 195.063 33.044C195.575 33.388 195.975 33.884 196.263 34.532C196.551 35.172 196.695 35.928 196.695 36.8C196.695 37.672 196.551 38.432 196.263 39.08C195.975 39.72 195.575 40.212 195.063 40.556C194.559 40.9 193.983 41.072 193.335 41.072ZM193.335 40.28C193.823 40.28 194.251 40.144 194.619 39.872C194.995 39.6 195.287 39.204 195.495 38.684C195.703 38.164 195.807 37.536 195.807 36.8C195.807 36.064 195.703 35.436 195.495 34.916C195.287 34.396 194.995 34 194.619 33.728C194.251 33.456 193.823 33.32 193.335 33.32C192.847 33.32 192.415 33.456 192.039 33.728C191.671 34 191.383 34.396 191.175 34.916C190.967 35.436 190.863 36.064 190.863 36.8C190.863 37.536 190.967 38.164 191.175 38.684C191.383 39.204 191.671 39.6 192.039 39.872C192.415 40.144 192.847 40.28 193.335 40.28ZM198.581 35.948C198.405 35.948 198.253 35.884 198.125 35.756C198.005 35.628 197.945 35.472 197.945 35.288C197.945 35.104 198.005 34.952 198.125 34.832C198.253 34.704 198.405 34.64 198.581 34.64C198.757 34.64 198.909 34.704 199.037 34.832C199.165 34.952 199.229 35.104 199.229 35.288C199.229 35.472 199.165 35.628 199.037 35.756C198.909 35.884 198.757 35.948 198.581 35.948ZM198.581 41.06C198.405 41.06 198.253 40.996 198.125 40.868C198.005 40.74 197.945 40.584 197.945 40.4C197.945 40.216 198.005 40.064 198.125 39.944C198.253 39.816 198.405 39.752 198.581 39.752C198.757 39.752 198.909 39.816 199.037 39.944C199.165 40.064 199.229 40.216 199.229 40.4C199.229 40.584 199.165 40.74 199.037 40.868C198.909 40.996 198.757 41.06 198.581 41.06ZM203.824 41.072C203.176 41.072 202.596 40.9 202.084 40.556C201.58 40.212 201.184 39.72 200.896 39.08C200.616 38.432 200.476 37.672 200.476 36.8C200.476 35.928 200.616 35.172 200.896 34.532C201.184 33.884 201.58 33.388 202.084 33.044C202.596 32.7 203.176 32.528 203.824 32.528C204.472 32.528 205.048 32.7 205.552 33.044C206.064 33.388 206.464 33.884 206.752 34.532C207.04 35.172 207.184 35.928 207.184 36.8C207.184 37.672 207.04 38.432 206.752 39.08C206.464 39.72 206.064 40.212 205.552 40.556C205.048 40.9 204.472 41.072 203.824 41.072ZM203.824 40.28C204.312 40.28 204.74 40.144 205.108 39.872C205.484 39.6 205.776 39.204 205.984 38.684C206.192 38.164 206.296 37.536 206.296 36.8C206.296 36.064 206.192 35.436 205.984 34.916C205.776 34.396 205.484 34 205.108 33.728C204.74 33.456 204.312 33.32 203.824 33.32C203.336 33.32 202.904 33.456 202.528 33.728C202.16 34 201.872 34.396 201.664 34.916C201.456 35.436 201.352 36.064 201.352 36.8C201.352 37.536 201.456 38.164 201.664 38.684C201.872 39.204 202.16 39.6 202.528 39.872C202.904 40.144 203.336 40.28 203.824 40.28ZM211.769 41.072C211.121 41.072 210.541 40.9 210.029 40.556C209.525 40.212 209.129 39.72 208.841 39.08C208.561 38.432 208.421 37.672 208.421 36.8C208.421 35.928 208.561 35.172 208.841 34.532C209.129 33.884 209.525 33.388 210.029 33.044C210.541 32.7 211.121 32.528 211.769 32.528C212.417 32.528 212.993 32.7 213.497 33.044C214.009 33.388 214.409 33.884 214.697 34.532C214.985 35.172 215.129 35.928 215.129 36.8C215.129 37.672 214.985 38.432 214.697 39.08C214.409 39.72 214.009 40.212 213.497 40.556C212.993 40.9 212.417 41.072 211.769 41.072ZM211.769 40.28C212.257 40.28 212.685 40.144 213.053 39.872C213.429 39.6 213.721 39.204 213.929 38.684C214.137 38.164 214.241 37.536 214.241 36.8C214.241 36.064 214.137 35.436 213.929 34.916C213.721 34.396 213.429 34 213.053 33.728C212.685 33.456 212.257 33.32 211.769 33.32C211.281 33.32 210.849 33.456 210.473 33.728C210.105 34 209.817 34.396 209.609 34.916C209.401 35.436 209.297 36.064 209.297 36.8C209.297 37.536 209.401 38.164 209.609 38.684C209.817 39.204 210.105 39.6 210.473 39.872C210.849 40.144 211.281 40.28 211.769 40.28Z" fill="#2E363E"/>
</g>
<defs>
<clipPath id="clip0_382_3342">
<rect width="222" height="46" fill="white"/>
</clipPath>
</defs>
</svg>
